<svg xmlns="http://www.w3.org/2000/svg" viewBox="0 0 1600 1000" role="img" aria-labelledby="t d">
<title id="t">Usoutt project cover</title><desc id="d">Modern business website mockup in cobalt, ice and black.</desc>
<defs><linearGradient id="bg" x1="0" y1="0" x2="1" y2="1"><stop stop-color="#08111d"/><stop offset="1" stop-color="#17375d"/></linearGradient><linearGradient id="glass" x1="0" y1="0" x2="1" y2="1"><stop stop-color="#ffffff" stop-opacity=".2"/><stop offset="1" stop-color="#ffffff" stop-opacity=".03"/></linearGradient></defs>
<rect width="1600" height="1000" fill="url(#bg)"/><circle cx="1340" cy="160" r="350" fill="#3786ff" opacity=".32"/><circle cx="230" cy="860" r="320" fill="#00d4ff" opacity=".15"/>
<g transform="translate(110 92)"><rect width="1380" height="816" rx="32" fill="#0c1624" stroke="#7da8d7" stroke-opacity=".25"/><rect width="1380" height="76" rx="32" fill="#111e2e"/><circle cx="40" cy="38" r="8" fill="#ff7b72"/><circle cx="68" cy="38" r="8" fill="#f3bd52"/><circle cx="96" cy="38" r="8" fill="#67c58f"/>
<text x="70" y="160" fill="#8fb9ff" font-family="Arial, sans-serif" font-size="27" font-weight="800" letter-spacing="7">USOUTT</text>
<text x="70" y="285" fill="#fff" font-family="Arial, sans-serif" font-size="94" font-weight="800">Built to stand out.</text><text x="70" y="375" fill="#8fb9ff" font-family="Arial, sans-serif" font-size="94" font-weight="800">Designed to move.</text>
<text x="72" y="460" fill="#a9b9cb" font-family="Arial, sans-serif" font-size="28">A clean, responsive digital presence built around clarity and action.</text>
<rect x="72" y="530" width="250" height="68" rx="34" fill="#2f7bf6"/><text x="124" y="574" fill="#fff" font-family="Arial, sans-serif" font-size="24" font-weight="700">Discover more</text>
<g transform="translate(830 170)"><rect width="420" height="490" rx="48" fill="url(#glass)" stroke="#fff" stroke-opacity=".2"/><rect x="50" y="60" width="320" height="60" rx="18" fill="#ffffff" fill-opacity=".12"/><rect x="50" y="155" width="260" height="22" rx="11" fill="#8fb9ff"/><rect x="50" y="205" width="310" height="18" rx="9" fill="#ffffff" fill-opacity=".16"/><rect x="50" y="242" width="280" height="18" rx="9" fill="#ffffff" fill-opacity=".12"/><rect x="50" y="310" width="130" height="110" rx="22" fill="#2f7bf6"/><rect x="200" y="310" width="170" height="110" rx="22" fill="#00bce7" fill-opacity=".6"/></g>
</g></svg>
